

Genre:Comedy | Romance
Language:English  http://www.imdb.com/title/tt1278379/
Source:BluRay.x264-DEPRAViTY
Subtitles:Romana


Format : Matroska
File size : 1.64 GiB
Duration : 1h 30mn
Overall bit rate : 2 583 Kbps


Video
Format settings, CABAC : Yes
Format settings, ReFrames : 4 frames
Codec ID : V_MPEG4/ISO/AVC
Duration : 1h 30mn
Bit rate : 2 200 Kbps
Width : 1 280 pixels
Height : 688 pixels
Display aspect ratio : 1.860
Frame rate mode : Variable
Frame rate : 23.976 fps
Color space : YUV
Chroma subsampling : 4:2:0
Bit depth : 8 bits
Scan type : Progressive
Bits/(Pixel*Frame) : 0.104
Stream size : 1.36 GiB (83%)
Writing library : x264


Audio
ID : 2
Format : AC-3
Format/Info : Audio Coding 3
Mode extension : CM (complete main)
Codec ID : A_AC3
Duration : 1h 30mn
Bit rate mode : Constant
Bit rate : 384 Kbps
Channel(s) : 6 channels
Channel positions : Front: L C R, Side: L R, LFE
Sampling rate : 48.0 KHz
Bit depth : 16 bits
Video delay : -1mn 5s
Stream size : 249 MiB (15%)
Language : English


Plot:
A limo driver's blind date sparks a tale of love, betrayal, friendship, and grace centered around two working-class New York City couples.
 
http://shareimage.org/images/lhmmyvyor7d1mec60tcy.png 
http://shareimage.org/images/34rpdh0jxfx61uqg26w3.png 
http://shareimage.org/images/njt4s6u1eoyfgz59037q.png